NotoSerif-CondensedLight.ufo
<glyph name="uni023D" format="2">
  <advance width="448"/>
  <unicode hex="023D"/>
  <anchor x="224" y="0" name="bottom"/>
  <anchor x="224" y="714" name="top"/>
  <anchor x="124" y="357" name="center"/>
  <anchor x="428" y="714" name="topright"/>
  <outline>
    <contour>
      <point x="36" y="365" type="line"/>
      <point x="239" y="365" type="line"/>
      <point x="239" y="390" type="line"/>
      <point x="36" y="390" type="line"/>
    </contour>
    <component base="L"/>
  </outline>
</glyph>
<glyph name="uni0244" format="2">
  <advance width="521"/>
  <unicode hex="0244"/>
  <anchor x="261" y="0" name="bottom"/>
  <anchor x="261" y="714" name="top"/>
  <anchor x="505" y="714" name="topright"/>
  <outline>
    <contour>
      <point x="8" y="362" type="line"/>
      <point x="513" y="362" type="line"/>
      <point x="513" y="387" type="line"/>
      <point x="8" y="387" type="line"/>
    </contour>
    <component base="U"/>
  </outline>
</glyph>
<glyph name="uni0289" format="2">
  <advance width="458"/>
  <unicode hex="0289"/>
  <anchor x="229" y="0" name="bottom"/>
  <anchor x="229" y="536" name="top"/>
  <anchor x="418" y="536" name="topright"/>
  <outline>
    <contour>
      <point x="17" y="274" type="line"/>
      <point x="440" y="274" type="line"/>
      <point x="440" y="299" type="line"/>
      <point x="17" y="299" type="line"/>
    </contour>
    <component base="u"/>
  </outline>
</glyph>
<glyph name="xabovecomb" format="2">
  <unicode hex="033D"/>
  <anchor x="1" y="536" name="_top"/>
  <anchor x="1" y="753" name="top"/>
  <outline>
    <contour>
      <point x="-38" y="580" type="line"/>
      <point x="0" y="629" type="line"/>
      <point x="38" y="580" type="line"/>
      <point x="66" y="617" type="line"/>
      <point x="30" y="666" type="line"/>
      <point x="67" y="715" type="line"/>
      <point x="39" y="753" type="line"/>
      <point x="0" y="703" type="line"/>
      <point x="-38" y="753" type="line"/>
      <point x="-65" y="716" type="line"/>
      <point x="-29" y="666" type="line"/>
      <point x="-65" y="617" type="line"/>
    </contour>
  </outline>
</glyph>
<glyph name="arrowheadleftbelowcomb" format="2">
  <unicode hex="0354"/>
  <anchor x="0" y="0" name="_bottom"/>
  <anchor x="0" y="-240" name="bottom"/>
  <outline>
    <contour>
      <point x="64" y="-240" type="curve"/>
      <point x="72" y="-240" type="line"/>
      <point x="72" y="-189" type="line"/>
      <point x="54" y="-172"/>
      <point x="27" y="-153"/>
      <point x="2" y="-140" type="curve"/>
      <point x="31" y="-126"/>
      <point x="61" y="-103"/>
      <point x="72" y="-91" type="curve"/>
      <point x="72" y="-40" type="line"/>
      <point x="64" y="-40" type="line"/>
      <point x="14" y="-77"/>
      <point x="-27" y="-102"/>
      <point x="-72" y="-111" type="curve"/>
      <point x="-72" y="-169" type="line"/>
      <point x="-28" y="-184"/>
      <point x="15" y="-204"/>
    </contour>
  </outline>
</glyph>
<glyph name="arrowheadrightbelowcomb" format="2">
  <unicode hex="0355"/>
  <anchor x="0" y="0" name="_bottom"/>
  <anchor x="0" y="-240" name="bottom"/>
  <outline>
    <contour>
      <point x="-72" y="-189" type="curve"/>
      <point x="-72" y="-240" type="line"/>
      <point x="-65" y="-240" type="line"/>
      <point x="-16" y="-203"/>
      <point x="27" y="-178"/>
      <point x="72" y="-169" type="curve"/>
      <point x="72" y="-111" type="line"/>
      <point x="27" y="-96"/>
      <point x="-16" y="-76"/>
      <point x="-65" y="-40" type="curve"/>
      <point x="-72" y="-40" type="line"/>
      <point x="-72" y="-91" type="line"/>
      <point x="-54" y="-108"/>
      <point x="-28" y="-127"/>
      <point x="-1" y="-140" type="curve"/>
      <point x="-32" y="-154"/>
      <point x="-60" y="-177"/>
    </contour>
  </outline>
</glyph>
<glyph name="uni051F" format="2">
  <advance width="432"/>
  <unicode hex="051F"/>
  <anchor x="216" y="0" name="bottom"/>
  <anchor x="216" y="536" name="top"/>
  <outline>
    <contour>
      <point x="342" y="349" type="line"/>
      <point x="355" y="369" type="line"/>
      <point x="194" y="468" type="line"/>
      <point x="180" y="449" type="line"/>
    </contour>
    <component base="afii10076"/>
  </outline>
</glyph>
<glyph name="uni1ABF" format="2">
  <unicode hex="1ABF"/>
  <anchor x="0" y="0" name="_bottom"/>
  <outline>
    <contour>
      <point x="-57" y="-278" type="line"/>
      <point x="0" y="-77" type="line"/>
      <point x="57" y="-278" type="line"/>
      <point x="74" y="-278" type="line"/>
      <point x="121" y="-91" type="line" smooth="yes"/>
      <point x="125" y="-73"/>
      <point x="128" y="-72"/>
      <point x="147" y="-72" type="curve" smooth="yes"/>
      <point x="148" y="-72" type="line"/>
      <point x="148" y="-64" type="line"/>
      <point x="84" y="-64" type="line"/>
      <point x="84" y="-72" type="line"/>
      <point x="94" y="-72" type="line" smooth="yes"/>
      <point x="110" y="-72"/>
      <point x="111" y="-74"/>
      <point x="111" y="-80" type="curve" smooth="yes"/>
      <point x="111" y="-84"/>
      <point x="108" y="-94"/>
      <point x="105" y="-107" type="curve" smooth="yes"/>
      <point x="83" y="-195" type="line" smooth="yes"/>
      <point x="74" y="-228"/>
      <point x="68" y="-251"/>
      <point x="66" y="-269" type="curve"/>
      <point x="65" y="-269" type="line"/>
      <point x="62" y="-250"/>
      <point x="51" y="-209"/>
      <point x="45" y="-189" type="curve" smooth="yes"/>
      <point x="8" y="-64" type="line"/>
      <point x="-8" y="-64" type="line"/>
      <point x="-45" y="-195" type="line" smooth="yes"/>
      <point x="-51" y="-215"/>
      <point x="-63" y="-253"/>
      <point x="-64" y="-267" type="curve"/>
      <point x="-65" y="-267" type="line"/>
      <point x="-67" y="-252"/>
      <point x="-76" y="-215"/>
      <point x="-80" y="-196" type="curve" smooth="yes"/>
      <point x="-102" y="-108" type="line" smooth="yes"/>
      <point x="-104" y="-100"/>
      <point x="-108" y="-83"/>
      <point x="-108" y="-80" type="curve" smooth="yes"/>
      <point x="-108" y="-74"/>
      <point x="-106" y="-72"/>
      <point x="-91" y="-72" type="curve" smooth="yes"/>
      <point x="-82" y="-72" type="line"/>
      <point x="-82" y="-64" type="line"/>
      <point x="-145" y="-64" type="line"/>
      <point x="-145" y="-72" type="line"/>
      <point x="-144" y="-72" type="line" smooth="yes"/>
      <point x="-126" y="-72"/>
      <point x="-123" y="-74"/>
      <point x="-118" y="-93" type="curve" smooth="yes"/>
      <point x="-72" y="-278" type="line"/>
    </contour>
  </outline>
</glyph>
<glyph name="uni1AC0" format="2">
  <unicode hex="1AC0"/>
  <anchor x="0" y="0" name="_bottom"/>
  <outline>
    <contour>
      <point x="58" y="-64" type="line"/>
      <point x="1" y="-265" type="line"/>
      <point x="-56" y="-64" type="line"/>
      <point x="-73" y="-64" type="line"/>
      <point x="-120" y="-251" type="line" smooth="yes"/>
      <point x="-124" y="-269"/>
      <point x="-127" y="-270"/>
      <point x="-146" y="-270" type="curve" smooth="yes"/>
      <point x="-147" y="-270" type="line"/>
      <point x="-147" y="-278" type="line"/>
      <point x="-83" y="-278" type="line"/>
      <point x="-83" y="-270" type="line"/>
      <point x="-93" y="-270" type="line" smooth="yes"/>
      <point x="-109" y="-270"/>
      <point x="-110" y="-268"/>
      <point x="-110" y="-262" type="curve" smooth="yes"/>
      <point x="-110" y="-258"/>
      <point x="-107" y="-248"/>
      <point x="-104" y="-235" type="curve" smooth="yes"/>
      <point x="-82" y="-147" type="line" smooth="yes"/>
      <point x="-73" y="-114"/>
      <point x="-67" y="-91"/>
      <point x="-65" y="-73" type="curve"/>
      <point x="-64" y="-73" type="line"/>
      <point x="-61" y="-92"/>
      <point x="-50" y="-133"/>
      <point x="-44" y="-153" type="curve" smooth="yes"/>
      <point x="-7" y="-278" type="line"/>
      <point x="9" y="-278" type="line"/>
      <point x="46" y="-147" type="line" smooth="yes"/>
      <point x="52" y="-127"/>
      <point x="64" y="-89"/>
      <point x="65" y="-75" type="curve"/>
      <point x="66" y="-75" type="line"/>
      <point x="68" y="-90"/>
      <point x="77" y="-127"/>
      <point x="81" y="-146" type="curve" smooth="yes"/>
      <point x="103" y="-234" type="line" smooth="yes"/>
      <point x="105" y="-242"/>
      <point x="109" y="-259"/>
      <point x="109" y="-262" type="curve" smooth="yes"/>
      <point x="109" y="-268"/>
      <point x="107" y="-270"/>
      <point x="92" y="-270" type="curve" smooth="yes"/>
      <point x="83" y="-270" type="line"/>
      <point x="83" y="-278" type="line"/>
      <point x="146" y="-278" type="line"/>
      <point x="146" y="-270" type="line"/>
      <point x="145" y="-270" type="line" smooth="yes"/>
      <point x="127" y="-270"/>
      <point x="124" y="-268"/>
      <point x="119" y="-249" type="curve" smooth="yes"/>
      <point x="73" y="-64" type="line"/>
    </contour>
  </outline>
</glyph>
<glyph name="uni1D6F" format="2">
  <advance width="685"/>
  <unicode hex="1D6F"/>
  <anchor x="382" y="0" name="bottom"/>
  <anchor x="351" y="536" name="top"/>
  <anchor x="663" y="536" name="topright"/>
  <outline>
    <contour>
      <point x="5" y="212" type="curve"/>
      <point x="29" y="212" type="line"/>
      <point x="35" y="248"/>
      <point x="54" y="300"/>
      <point x="138" y="300" type="curve" smooth="yes"/>
      <point x="263" y="300"/>
      <point x="407" y="215"/>
      <point x="551" y="215" type="curve" smooth="yes"/>
      <point x="653" y="215"/>
      <point x="681" y="281"/>
      <point x="685" y="332" type="curve"/>
      <point x="661" y="332" type="line"/>
      <point x="657" y="295"/>
      <point x="637" y="243"/>
      <point x="551" y="243" type="curve" smooth="yes"/>
      <point x="412" y="243"/>
      <point x="264" y="328"/>
      <point x="138" y="328" type="curve" smooth="yes"/>
      <point x="33" y="328"/>
      <point x="9" y="262"/>
    </contour>
    <component base="m"/>
  </outline>
</glyph>
<glyph name="uni1D7A" format="2">
  <advance width="683"/>
  <unicode hex="1D7A"/>
  <anchor x="155" y="0" name="bottom_1"/>
  <anchor x="452" y="0" name="bottom_2"/>
  <anchor x="90" y="268" name="center_1"/>
  <anchor x="452" y="268" name="center_2"/>
  <anchor x="91" y="657" name="top_1"/>
  <anchor x="321" y="751" name="top_2"/>
  <anchor x="129" y="930" name="topright_1"/>
  <anchor x="600" y="760" name="topright_2"/>
  <outline>
    <contour>
      <point x="22" y="-110" type="line"/>
      <point x="50" y="-110" type="line"/>
      <point x="538" y="760" type="line"/>
      <point x="510" y="760" type="line"/>
    </contour>
    <component base="t"/>
    <component base="h" xOffset="223"/>
  </outline>
</glyph>
<glyph name="uni1D7B" format="2">
  <advance width="235"/>
  <unicode hex="1D7B"/>
  <anchor x="117" y="0" name="bottom"/>
  <anchor x="117" y="536" name="top"/>
  <outline>
    <contour>
      <point x="26" y="272" type="line"/>
      <point x="211" y="272" type="line"/>
      <point x="211" y="297" type="line"/>
      <point x="26" y="297" type="line"/>
    </contour>
    <component base="uni026A"/>
  </outline>
</glyph>
<glyph name="uni1D7C" format="2">
  <advance width="210"/>
  <unicode hex="1D7C"/>
  <anchor x="105" y="0" name="bottom"/>
  <anchor x="105" y="536" name="top"/>
  <outline>
    <contour>
      <point x="11" y="269" type="line"/>
      <point x="192" y="269" type="line"/>
      <point x="192" y="294" type="line"/>
      <point x="11" y="294" type="line"/>
    </contour>
    <component base="iotaLatin"/>
  </outline>
</glyph>
<glyph name="uni1D7D" format="2">
  <advance width="442"/>
  <unicode hex="1D7D"/>
  <anchor x="106" y="-240" name="bottom"/>
  <anchor x="222" y="536" name="top"/>
  <anchor x="423" y="536" name="topright"/>
  <outline>
    <contour>
      <point x="16" y="255" type="line"/>
      <point x="438" y="255" type="line"/>
      <point x="438" y="280" type="line"/>
      <point x="16" y="280" type="line"/>
    </contour>
    <component base="p"/>
  </outline>
</glyph>
<glyph name="uni1D7F" format="2">
  <advance width="410"/>
  <unicode hex="1D7F"/>
  <anchor x="217" y="0" name="bottom"/>
  <anchor x="217" y="536" name="top"/>
  <outline>
    <contour>
      <point x="7" y="258" type="line"/>
      <point x="403" y="258" type="line"/>
      <point x="403" y="283" type="line"/>
      <point x="7" y="283" type="line"/>
    </contour>
    <component base="uni028A"/>
  </outline>
</glyph>
<glyph name="uni2034" format="2">
  <advance width="337"/>
  <unicode hex="2034"/>
  <outline>
    <contour>
      <point x="228" y="479" type="line"/>
      <point x="248" y="479" type="line"/>
      <point x="317" y="714" type="line"/>
      <point x="277" y="714" type="line"/>
    </contour>
    <contour>
      <point x="20" y="479" type="line"/>
      <point x="40" y="479" type="line"/>
      <point x="109" y="714" type="line"/>
      <point x="69" y="714" type="line"/>
    </contour>
    <contour>
      <point x="124" y="479" type="line"/>
      <point x="144" y="479" type="line"/>
      <point x="213" y="714" type="line"/>
      <point x="173" y="714" type="line"/>
    </contour>
  </outline>
</glyph>
<glyph name="doubleprimeReversed" format="2">
  <advance width="233"/>
  <unicode hex="2036"/>
  <outline>
    <contour>
      <point x="193" y="479" type="line"/>
      <point x="213" y="479" type="line"/>
      <point x="164" y="714" type="line"/>
      <point x="124" y="714" type="line"/>
    </contour>
    <contour>
      <point x="89" y="479" type="line"/>
      <point x="109" y="479" type="line"/>
      <point x="60" y="714" type="line"/>
      <point x="20" y="714" type="line"/>
    </contour>
  </outline>
</glyph>
<glyph name="tripleprimeReversed" format="2">
  <advance width="337"/>
  <unicode hex="2037"/>
  <outline>
    <contour>
      <point x="297" y="479" type="line"/>
      <point x="317" y="479" type="line"/>
      <point x="268" y="714" type="line"/>
      <point x="228" y="714" type="line"/>
    </contour>
    <contour>
      <point x="89" y="479" type="line"/>
      <point x="109" y="479" type="line"/>
      <point x="60" y="714" type="line"/>
      <point x="20" y="714" type="line"/>
    </contour>
    <contour>
      <point x="193" y="479" type="line"/>
      <point x="213" y="479" type="line"/>
      <point x="164" y="714" type="line"/>
      <point x="124" y="714" type="line"/>
    </contour>
  </outline>
</glyph>
<glyph name="quadrupleprime" format="2">
  <advance width="442"/>
  <unicode hex="2057"/>
  <outline>
    <contour>
      <point x="333" y="479" type="line"/>
      <point x="353" y="479" type="line"/>
      <point x="422" y="714" type="line"/>
      <point x="382" y="714" type="line"/>
    </contour>
    <contour>
      <point x="20" y="479" type="line"/>
      <point x="40" y="479" type="line"/>
      <point x="109" y="714" type="line"/>
      <point x="69" y="714" type="line"/>
    </contour>
    <contour>
      <point x="124" y="479" type="line"/>
      <point x="144" y="479" type="line"/>
      <point x="213" y="714" type="line"/>
      <point x="173" y="714" type="line"/>
    </contour>
    <contour>
      <point x="229" y="479" type="line"/>
      <point x="249" y="479" type="line"/>
      <point x="318" y="714" type="line"/>
      <point x="278" y="714" type="line"/>
    </contour>
  </outline>
</glyph>
<glyph name="uni20A5" format="2">
  <advance width="684"/>
  <unicode hex="20A5"/>
  <anchor x="382" y="0" name="bottom"/>
  <anchor x="351" y="536" name="top"/>
  <anchor x="663" y="536" name="topright"/>
  <outline>
    <contour>
      <point x="189" y="-106" type="line"/>
      <point x="214" y="-106" type="line"/>
      <point x="460" y="666" type="line"/>
      <point x="433" y="666" type="line"/>
    </contour>
    <component base="m"/>
  </outline>
</glyph>
<glyph name="Euro" format="2">
  <advance width="425"/>
  <unicode hex="20AC"/>
  <outline>
    <contour>
      <point x="286" y="-10" type="curve" smooth="yes"/>
      <point x="348" y="-10"/>
      <point x="389" y="22"/>
      <point x="389" y="45" type="curve" smooth="yes"/>
      <point x="389" y="57"/>
      <point x="385" y="63"/>
      <point x="379" y="67" type="curve"/>
      <point x="363" y="38"/>
      <point x="341" y="15"/>
      <point x="286" y="15" type="curve" smooth="yes"/>
      <point x="196" y="15"/>
      <point x="149" y="122"/>
      <point x="138" y="277" type="curve"/>
      <point x="283" y="276" type="line"/>
      <point x="283" y="301" type="line"/>
      <point x="136" y="302" type="line"/>
      <point x="135" y="388" type="line"/>
      <point x="314" y="388" type="line"/>
      <point x="314" y="413" type="line"/>
      <point x="136" y="413" type="line"/>
      <point x="144" y="578"/>
      <point x="190" y="697"/>
      <point x="286" y="697" type="curve" smooth="yes"/>
      <point x="353" y="697"/>
      <point x="370" y="660"/>
      <point x="370" y="598" type="curve"/>
      <point x="383" y="598"/>
      <point x="391" y="614"/>
      <point x="391" y="644" type="curve" smooth="yes"/>
      <point x="391" y="677"/>
      <point x="365" y="722"/>
      <point x="286" y="722" type="curve" smooth="yes"/>
      <point x="176" y="722"/>
      <point x="117" y="608"/>
      <point x="108" y="413" type="curve"/>
      <point x="39" y="413" type="line"/>
      <point x="39" y="388" type="line"/>
      <point x="107" y="388" type="line"/>
      <point x="108" y="302" type="line"/>
      <point x="39" y="302" type="line"/>
      <point x="39" y="277" type="line"/>
      <point x="110" y="277" type="line"/>
      <point x="122" y="97"/>
      <point x="181" y="-10"/>
    </contour>
  </outline>
</glyph>
<glyph name="uni20AD" format="2">
  <advance width="503"/>
  <unicode hex="20AD"/>
  <anchor x="272" y="0" name="bottom"/>
  <anchor x="272" y="714" name="top"/>
  <anchor x="483" y="714" name="topright"/>
  <outline>
    <contour>
      <point x="33" y="362" type="line"/>
      <point x="421" y="362" type="line"/>
      <point x="421" y="387" type="line"/>
      <point x="33" y="387" type="line"/>
    </contour>
    <component base="K"/>
  </outline>
</glyph>
<glyph name="uni20B2" format="2">
  <advance width="500"/>
  <unicode hex="20B2"/>
  <anchor x="280" y="0" name="bottom"/>
  <anchor x="292" y="714" name="top"/>
  <anchor x="480" y="714" name="topright"/>
  <outline>
    <contour>
      <point x="247" y="-77" type="line"/>
      <point x="272" y="-77" type="line"/>
      <point x="272" y="780" type="line"/>
      <point x="247" y="780" type="line"/>
    </contour>
    <component base="G"/>
  </outline>
</glyph>
<glyph name="uni20B5" format="2">
  <advance width="428"/>
  <unicode hex="20B5"/>
  <anchor x="254" y="0" name="bottom"/>
  <anchor x="257" y="714" name="top"/>
  <anchor x="407" y="714" name="topright"/>
  <outline>
    <contour>
      <point x="231" y="-78" type="line"/>
      <point x="256" y="-78" type="line"/>
      <point x="256" y="780" type="line"/>
      <point x="231" y="780" type="line"/>
    </contour>
    <component base="C"/>
  </outline>
</glyph>
<glyph name="versicle" format="2">
  <advance width="494"/>
  <unicode hex="2123"/>
  <anchor x="247" y="0" name="bottom"/>
  <anchor x="247" y="714" name="top"/>
  <anchor x="474" y="714" name="topright"/>
  <outline>
    <contour>
      <point x="79" y="-119" type="line"/>
      <point x="105" y="-120" type="line"/>
      <point x="335" y="789" type="line"/>
      <point x="176" y="857" type="line"/>
      <point x="169" y="835" type="line"/>
      <point x="306" y="775" type="line"/>
    </contour>
    <component base="V"/>
  </outline>
</glyph>
<glyph name="uni2C66" format="2">
  <advance width="227"/>
  <unicode hex="2C66"/>
  <anchor x="114" y="-213" name="bottom"/>
  <anchor x="114" y="714" name="top"/>
  <anchor x="90" y="268" name="center"/>
  <anchor x="129" y="930" name="topright"/>
  <outline>
    <contour>
      <point x="63" y="-213" type="line"/>
      <point x="88" y="-213" type="line"/>
      <point x="245" y="714" type="line"/>
      <point x="220" y="714" type="line"/>
    </contour>
    <component base="t"/>
  </outline>
</glyph>
<glyph name="olowringinside" format="2">
  <advance width="410"/>
  <unicode hex="2C7A"/>
  <anchor x="205" y="0" name="bottom"/>
  <anchor x="205" y="536" name="top"/>
  <outline>
    <contour>
      <point x="205" y="-10" type="curve" smooth="yes"/>
      <point x="308" y="-10"/>
      <point x="362" y="73"/>
      <point x="362" y="267" type="curve" smooth="yes"/>
      <point x="362" y="449"/>
      <point x="314" y="542"/>
      <point x="207" y="542" type="curve" smooth="yes"/>
      <point x="97" y="542"/>
      <point x="48" y="451"/>
      <point x="48" y="267" type="curve" smooth="yes"/>
      <point x="48" y="76"/>
      <point x="105" y="-10"/>
    </contour>
    <contour>
      <point x="206" y="15" type="curve" smooth="yes"/>
      <point x="170" y="15"/>
      <point x="142" y="34"/>
      <point x="142" y="89" type="curve" smooth="yes"/>
      <point x="142" y="145"/>
      <point x="170" y="165"/>
      <point x="206" y="165" type="curve" smooth="yes"/>
      <point x="239" y="165"/>
      <point x="268" y="145"/>
      <point x="268" y="89" type="curve" smooth="yes"/>
      <point x="268" y="34"/>
      <point x="239" y="15"/>
    </contour>
    <contour>
      <point x="123" y="55" type="curve"/>
      <point x="91" y="96"/>
      <point x="76" y="167"/>
      <point x="76" y="267" type="curve" smooth="yes"/>
      <point x="76" y="434"/>
      <point x="110" y="517"/>
      <point x="205" y="517" type="curve" smooth="yes"/>
      <point x="301" y="517"/>
      <point x="334" y="434"/>
      <point x="334" y="267" type="curve" smooth="yes"/>
      <point x="334" y="160"/>
      <point x="320" y="85"/>
      <point x="283" y="46" type="curve"/>
      <point x="308" y="113"/>
      <point x="278" y="188"/>
      <point x="205" y="188" type="curve" smooth="yes"/>
      <point x="137" y="188"/>
      <point x="104" y="123"/>
    </contour>
  </outline>
</glyph>
<glyph name="downwardsancora" format="2">
  <advance width="568"/>
  <unicode hex="2E14"/>
  <outline>
    <contour>
      <point x="352" y="83" type="curve"/>
      <point x="326" y="117" type="line"/>
      <point x="283" y="97"/>
      <point x="245" y="104"/>
      <point x="202" y="151" type="curve"/>
      <point x="503" y="539" type="line"/>
      <point x="479" y="569" type="line"/>
      <point x="178" y="181" type="line"/>
      <point x="155" y="216"/>
      <point x="144" y="249"/>
      <point x="144" y="282" type="curve" smooth="yes"/>
      <point x="144" y="301"/>
      <point x="147" y="321"/>
      <point x="153" y="341" type="curve"/>
      <point x="126" y="375" type="line"/>
      <point x="115" y="343"/>
      <point x="111" y="313"/>
      <point x="111" y="284" type="curve" smooth="yes"/>
      <point x="111" y="230"/>
      <point x="132" y="180"/>
      <point x="167" y="136" type="curve" smooth="yes"/>
      <point x="220" y="68"/>
      <point x="281" y="42"/>
    </contour>
  </outline>
</glyph>
<glyph name="upwardsancora" format="2">
  <advance width="568"/>
  <unicode hex="2E15"/>
  <outline>
    <contour>
      <point x="114" y="42" type="line"/>
      <point x="409" y="430" type="line"/>
      <point x="445" y="375"/>
      <point x="450" y="325"/>
      <point x="434" y="270" type="curve"/>
      <point x="461" y="236" type="line"/>
      <point x="492" y="328"/>
      <point x="472" y="407"/>
      <point x="421" y="475" type="curve" smooth="yes"/>
      <point x="369" y="543"/>
      <point x="309" y="569"/>
      <point x="240" y="528" type="curve"/>
      <point x="265" y="494" type="line"/>
      <point x="306" y="514"/>
      <point x="344" y="507"/>
      <point x="386" y="460" type="curve"/>
      <point x="92" y="72" type="line"/>
    </contour>
  </outline>
</glyph>
<glyph name="uni2E4C" format="2">
  <advance width="284"/>
  <unicode hex="2E4C"/>
  <outline>
    <contour>
      <point x="99" y="83" type="curve" smooth="yes"/>
      <point x="84" y="83"/>
      <point x="71" y="74"/>
      <point x="71" y="44" type="curve" smooth="yes"/>
      <point x="71" y="14"/>
      <point x="84" y="5"/>
      <point x="99" y="5" type="curve" smooth="yes"/>
      <point x="116" y="5"/>
      <point x="129" y="14"/>
      <point x="129" y="44" type="curve" smooth="yes"/>
      <point x="129" y="74"/>
      <point x="116" y="83"/>
    </contour>
    <component base="uni2E45" xScale="0" xyScale="-1" yxScale="1" yScale="0" xOffset="-162" yOffset="591"/>
  </outline>
</glyph>
<glyph name="uniA680" format="2">
  <advance width="502"/>
  <unicode hex="A680"/>
  <anchor x="251" y="0" name="bottom"/>
  <anchor x="251" y="714" name="top"/>
  <outline>
    <contour>
      <point x="210" y="714" type="line"/>
      <point x="235" y="714" type="line"/>
      <point x="235" y="832" type="line"/>
      <point x="210" y="832" type="line"/>
    </contour>
    <component base="afii10021"/>
  </outline>
</glyph>
<glyph name="uniA748" format="2">
  <advance width="581"/>
  <unicode hex="A748"/>
  <anchor x="224" y="0" name="bottom"/>
  <anchor x="124" y="357" name="center"/>
  <anchor x="126" y="714" name="top"/>
  <anchor x="428" y="714" name="topright"/>
  <outline>
    <contour>
      <point x="29" y="563" type="line"/>
      <point x="224" y="563" type="line"/>
      <point x="224" y="588" type="line"/>
      <point x="29" y="588" type="line"/>
    </contour>
    <component base="L"/>
  </outline>
</glyph>
<glyph name="uniA749" format="2">
  <advance width="203"/>
  <unicode hex="A749"/>
  <anchor x="102" y="0" name="bottom"/>
  <anchor x="102" y="268" name="center"/>
  <anchor x="102" y="760" name="top"/>
  <anchor x="173" y="760" name="topright"/>
  <outline>
    <contour>
      <point x="15" y="613" type="line"/>
      <point x="190" y="613" type="line"/>
      <point x="190" y="638" type="line"/>
      <point x="15" y="638" type="line"/>
    </contour>
    <component base="l"/>
  </outline>
</glyph>
<glyph name="uniA750" format="2">
  <advance width="433"/>
  <unicode hex="A750"/>
  <anchor x="123" y="0" name="bottom"/>
  <anchor x="217" y="714" name="top"/>
  <anchor x="418" y="714" name="topright"/>
  <outline>
    <contour>
      <point x="36" y="147" type="line"/>
      <point x="223" y="147" type="line"/>
      <point x="223" y="172" type="line"/>
      <point x="36" y="172" type="line"/>
    </contour>
    <component base="P"/>
  </outline>
</glyph>
<glyph name="uniA75E" format="2">
  <advance width="494"/>
  <unicode hex="A75E"/>
  <anchor x="247" y="0" name="bottom"/>
  <anchor x="247" y="714" name="top"/>
  <anchor x="474" y="714" name="topright"/>
  <outline>
    <contour>
      <point x="88" y="0" type="line"/>
      <point x="113" y="0" type="line"/>
      <point x="300" y="714" type="line"/>
      <point x="275" y="714" type="line"/>
    </contour>
    <component base="V"/>
  </outline>
</glyph>
<glyph name="uniA75F" format="2">
  <advance width="418"/>
  <unicode hex="A75F"/>
  <anchor x="209" y="0" name="bottom"/>
  <anchor x="209" y="536" name="top"/>
  <anchor x="398" y="536" name="topright"/>
  <outline>
    <contour>
      <point x="69" y="-50" type="line"/>
      <point x="95" y="-50" type="line"/>
      <point x="277" y="596" type="line"/>
      <point x="251" y="596" type="line"/>
    </contour>
    <component base="v"/>
  </outline>
</glyph>
<glyph name="uniA767" format="2">
  <advance width="442"/>
  <unicode hex="A767"/>
  <anchor x="221" y="-240" name="bottom"/>
  <anchor x="221" y="760" name="top"/>
  <outline>
    <contour>
      <point x="17" y="-118" type="line"/>
      <point x="219" y="-118" type="line"/>
      <point x="219" y="-93" type="line"/>
      <point x="17" y="-93" type="line"/>
    </contour>
    <component base="thorn"/>
  </outline>
</glyph>
<glyph name="uniA792" format="2">
  <advance width="494"/>
  <unicode hex="A792"/>
  <anchor x="321" y="0" name="bottom"/>
  <anchor x="324" y="714" name="top"/>
  <anchor x="474" y="714" name="topright"/>
  <outline>
    <contour>
      <point x="30" y="365" type="line"/>
      <point x="262" y="365" type="line"/>
      <point x="262" y="390" type="line"/>
      <point x="30" y="390" type="line"/>
    </contour>
    <component base="C" xOffset="67"/>
  </outline>
</glyph>
<glyph name="uniA793" format="2">
  <advance width="369"/>
  <unicode hex="A793"/>
  <anchor x="229" y="0" name="bottom"/>
  <anchor x="235" y="536" name="top"/>
  <anchor x="365" y="536" name="topright"/>
  <outline>
    <contour>
      <point x="16" y="264" type="line"/>
      <point x="182" y="264" type="line"/>
      <point x="182" y="289" type="line"/>
      <point x="16" y="289" type="line"/>
    </contour>
    <component base="c" xOffset="38"/>
  </outline>
</glyph>
<glyph name="uniA799" format="2">
  <advance width="252"/>
  <unicode hex="A799"/>
  <anchor x="115" y="0" name="bottom"/>
  <anchor x="203" y="772" name="top"/>
  <anchor x="290" y="772" name="topright"/>
  <outline>
    <contour>
      <point x="26" y="265" type="line"/>
      <point x="211" y="265" type="line"/>
      <point x="211" y="290" type="line"/>
      <point x="26" y="290" type="line"/>
    </contour>
    <component base="f"/>
  </outline>
</glyph>
<glyph name="uniA7A0" format="2">
  <advance width="500"/>
  <unicode hex="A7A0"/>
  <anchor x="280" y="0" name="bottom"/>
  <anchor x="292" y="714" name="top"/>
  <anchor x="480" y="714" name="topright"/>
  <outline>
    <contour>
      <point x="-4" y="277" type="line"/>
      <point x="509" y="405" type="line"/>
      <point x="509" y="431" type="line"/>
      <point x="-4" y="303" type="line"/>
    </contour>
    <component base="G"/>
  </outline>
</glyph>
<glyph name="uniA7A1" format="2">
  <advance width="391"/>
  <unicode hex="A7A1"/>
  <anchor x="189" y="-242" name="bottom"/>
  <anchor x="189" y="536" name="top"/>
  <anchor x="371" y="536" name="topright"/>
  <outline>
    <contour>
      <point x="15" y="305" type="line"/>
      <point x="363" y="396" type="line"/>
      <point x="363" y="422" type="line"/>
      <point x="15" y="331" type="line"/>
    </contour>
    <component base="g"/>
  </outline>
</glyph>
<glyph name="uniA7A3" format="2">
  <advance width="405"/>
  <unicode hex="A7A3"/>
  <anchor x="203" y="760" name="top"/>
  <anchor x="203" y="0" name="bottom"/>
  <anchor x="315" y="830" name="topright"/>
  <outline>
    <contour>
      <point x="20" y="100" type="line"/>
      <point x="367" y="191" type="line"/>
      <point x="367" y="217" type="line"/>
      <point x="20" y="126" type="line"/>
    </contour>
    <component base="k"/>
  </outline>
</glyph>
<glyph name="uniA7A4" format="2">
  <advance width="559"/>
  <unicode hex="A7A4"/>
  <anchor x="290" y="0" name="bottom"/>
  <anchor x="280" y="714" name="top"/>
  <anchor x="539" y="714" name="topright"/>
  <outline>
    <contour>
      <point x="33" y="271" type="line"/>
      <point x="527" y="424" type="line"/>
      <point x="527" y="450" type="line"/>
      <point x="33" y="297" type="line"/>
    </contour>
    <component base="N"/>
  </outline>
</glyph>
<glyph name="uniA7A5" format="2">
  <advance width="472"/>
  <unicode hex="A7A5"/>
  <anchor x="252" y="0" name="bottom"/>
  <anchor x="248" y="536" name="top"/>
  <anchor x="453" y="536" name="topright"/>
  <outline>
    <contour>
      <point x="27" y="197" type="line"/>
      <point x="452" y="307" type="line"/>
      <point x="452" y="333" type="line"/>
      <point x="27" y="223" type="line"/>
    </contour>
    <component base="n"/>
  </outline>
</glyph>
<glyph name="uniA7A6" format="2">
  <advance width="457"/>
  <unicode hex="A7A6"/>
  <anchor x="239" y="0" name="bottom"/>
  <anchor x="229" y="714" name="top"/>
  <anchor x="437" y="714" name="topright"/>
  <outline>
    <contour>
      <point x="43" y="446" type="line"/>
      <point x="449" y="557" type="line"/>
      <point x="449" y="583" type="line"/>
      <point x="43" y="472" type="line"/>
    </contour>
    <component base="R"/>
  </outline>
</glyph>
<glyph name="uniA7A7" format="2">
  <advance width="318"/>
  <unicode hex="A7A7"/>
  <anchor x="119" y="0" name="bottom"/>
  <anchor x="189" y="536" name="top"/>
  <anchor x="298" y="536" name="topright"/>
  <outline>
    <contour>
      <point x="33" y="199" type="line"/>
      <point x="227" y="250" type="line"/>
      <point x="227" y="276" type="line"/>
      <point x="33" y="225" type="line"/>
    </contour>
    <component base="r"/>
  </outline>
</glyph>
<glyph name="uniA7A8" format="2">
  <advance width="382"/>
  <unicode hex="A7A8"/>
  <anchor x="191" y="0" name="bottom"/>
  <anchor x="198" y="714" name="top"/>
  <anchor x="362" y="714" name="topright"/>
  <outline>
    <contour>
      <point x="53" y="317" type="line"/>
      <point x="341" y="373" type="line"/>
      <point x="341" y="399" type="line"/>
      <point x="53" y="343" type="line"/>
    </contour>
    <component base="S"/>
  </outline>
</glyph>
<glyph name="uniA7A9" format="2">
  <advance width="315"/>
  <unicode hex="A7A9"/>
  <anchor x="158" y="0" name="bottom"/>
  <anchor x="164" y="541" name="top"/>
  <anchor x="285" y="536" name="topright"/>
  <outline>
    <contour>
      <point x="13" y="223" type="line"/>
      <point x="303" y="309" type="line"/>
      <point x="303" y="335" type="line"/>
      <point x="13" y="249" type="line"/>
    </contour>
    <component base="s"/>
  </outline>
</glyph>
<glyph name="uniA7B9" format="2">
  <advance width="458"/>
  <unicode hex="A7B9"/>
  <anchor x="389" y="0" name="bottom"/>
  <anchor x="219" y="536" name="top"/>
  <anchor x="418" y="536" name="topright"/>
  <outline>
    <contour>
      <point x="21" y="-11" type="line"/>
      <point x="47" y="-11" type="line"/>
      <point x="420" y="582" type="line"/>
      <point x="394" y="582" type="line"/>
    </contour>
    <component base="u"/>
  </outline>
</glyph>
<glyph name="uniA7C3" format="2">
  <advance width="620"/>
  <unicode hex="A7C3"/>
  <outline>
    <contour>
      <point x="60" y="468" type="curve" smooth="yes"/>
      <point x="188" y="0" type="line"/>
      <point x="219" y="0" type="line"/>
      <point x="347" y="419" type="line" smooth="yes"/>
      <point x="365" y="478"/>
      <point x="392" y="519"/>
      <point x="452" y="519" type="curve" smooth="yes"/>
      <point x="500" y="519"/>
      <point x="534" y="487"/>
      <point x="534" y="427" type="curve" smooth="yes"/>
      <point x="534" y="365"/>
      <point x="497" y="318"/>
      <point x="432" y="293" type="curve"/>
      <point x="419" y="296"/>
      <point x="406" y="298"/>
      <point x="393" y="298" type="curve" smooth="yes"/>
      <point x="371" y="298"/>
      <point x="359" y="293"/>
      <point x="359" y="281" type="curve" smooth="yes"/>
      <point x="359" y="268"/>
      <point x="374" y="265"/>
      <point x="394" y="265" type="curve" smooth="yes"/>
      <point x="406" y="265"/>
      <point x="419" y="268"/>
      <point x="431" y="272" type="curve"/>
      <point x="506" y="252"/>
      <point x="546" y="206"/>
      <point x="546" y="140" type="curve" smooth="yes"/>
      <point x="546" y="63"/>
      <point x="492" y="25"/>
      <point x="393" y="25" type="curve" smooth="yes"/>
      <point x="370" y="25" type="line"/>
      <point x="302" y="104"/>
      <point x="261" y="224"/>
      <point x="261" y="327" type="curve" smooth="yes"/>
      <point x="261" y="417"/>
      <point x="264" y="497"/>
      <point x="325" y="602" type="curve"/>
      <point x="297" y="602" type="line"/>
      <point x="239" y="499"/>
      <point x="236" y="420"/>
      <point x="236" y="328" type="curve" smooth="yes"/>
      <point x="236" y="215"/>
      <point x="280" y="90"/>
      <point x="357" y="0" type="curve"/>
      <point x="378" y="0" type="line" smooth="yes"/>
      <point x="505" y="0"/>
      <point x="572" y="41"/>
      <point x="572" y="139" type="curve" smooth="yes"/>
      <point x="572" y="214"/>
      <point x="528" y="262"/>
      <point x="465" y="284" type="curve"/>
      <point x="519" y="310"/>
      <point x="560" y="358"/>
      <point x="560" y="427" type="curve" smooth="yes"/>
      <point x="560" y="496"/>
      <point x="517" y="542"/>
      <point x="453" y="542" type="curve" smooth="yes"/>
      <point x="380" y="542"/>
      <point x="346" y="502"/>
      <point x="322" y="422" type="curve" smooth="yes"/>
      <point x="205" y="28" type="line"/>
      <point x="195" y="69"/>
      <point x="172" y="156"/>
      <point x="157" y="211" type="curve" smooth="yes"/>
      <point x="105" y="407" type="line" smooth="yes"/>
      <point x="96" y="439"/>
      <point x="84" y="484"/>
      <point x="84" y="498" type="curve" smooth="yes"/>
      <point x="84" y="513"/>
      <point x="94" y="516"/>
      <point x="130" y="516" type="curve" smooth="yes"/>
      <point x="144" y="516" type="line"/>
      <point x="144" y="536" type="line"/>
      <point x="3" y="536" type="line"/>
      <point x="3" y="516" type="line"/>
      <point x="44" y="516"/>
      <point x="48" y="511"/>
    </contour>
  </outline>
</glyph>
<glyph name="uniA7C7" format="2">
  <advance width="522"/>
  <unicode hex="A7C7"/>
  <anchor x="250" y="0" name="bottom"/>
  <anchor x="261" y="357" name="center"/>
  <anchor x="253" y="714" name="top"/>
  <anchor x="502" y="714" name="topright"/>
  <outline>
    <contour>
      <point x="124" y="355" type="line"/>
      <point x="463" y="355" type="line"/>
      <point x="463" y="380" type="line"/>
      <point x="124" y="380" type="line"/>
    </contour>
    <component base="D"/>
  </outline>
</glyph>
<glyph name="uniA7C8" format="2">
  <advance width="439"/>
  <unicode hex="A7C8"/>
  <anchor x="220" y="0" name="bottom"/>
  <anchor x="220" y="268" name="center"/>
  <anchor x="329" y="760" name="top"/>
  <anchor x="409" y="760" name="topright"/>
  <outline>
    <contour>
      <point x="63" y="258" type="line"/>
      <point x="339" y="258" type="line"/>
      <point x="339" y="283" type="line"/>
      <point x="63" y="283" type="line"/>
    </contour>
    <component base="d"/>
  </outline>
</glyph>
<glyph name="uniA7C9" format="2">
  <advance width="382"/>
  <unicode hex="A7C9"/>
  <anchor x="190" y="0" name="bottom"/>
  <anchor x="197" y="714" name="top"/>
  <anchor x="361" y="714" name="topright"/>
  <outline>
    <contour>
      <point x="37" y="355" type="line"/>
      <point x="349" y="355" type="line"/>
      <point x="349" y="380" type="line"/>
      <point x="37" y="380" type="line"/>
    </contour>
    <component base="S" xOffset="-1"/>
  </outline>
</glyph>
<glyph name="uniA7CA" format="2">
  <advance width="315"/>
  <unicode hex="A7CA"/>
  <anchor x="158" y="0" name="bottom"/>
  <anchor x="164" y="541" name="top"/>
  <anchor x="285" y="536" name="topright"/>
  <outline>
    <contour>
      <point x="28" y="263" type="line"/>
      <point x="286" y="263" type="line"/>
      <point x="286" y="288" type="line"/>
      <point x="28" y="288" type="line"/>
    </contour>
    <component base="s"/>
  </outline>
</glyph>
<glyph name="uniAB30" format="2">
  <advance width="439"/>
  <unicode hex="AB30"/>
  <anchor x="219" y="0" name="bottom"/>
  <anchor x="219" y="536" name="top"/>
  <outline>
    <contour>
      <point x="-5" y="273" type="line"/>
      <point x="432" y="273" type="line"/>
      <point x="432" y="298" type="line"/>
      <point x="-5" y="298" type="line"/>
    </contour>
    <component base="uni0251"/>
  </outline>
</glyph>
<glyph name="uniAB69" format="2">
  <advance width="425"/>
  <unicode hex="AB69"/>
  <anchor x="213.15" y="287.4" name="bottom"/>
  <anchor x="5.8" y="287.4" name="bottomleft"/>
  <anchor x="213.15" y="609" name="top"/>
  <outline>
    <contour>
      <point x="298" y="609" type="line"/>
      <point x="214" y="308" type="line"/>
      <point x="132" y="609" type="line"/>
      <point x="109" y="609" type="line"/>
      <point x="40" y="329" type="line" smooth="yes"/>
      <point x="34" y="301"/>
      <point x="29" y="299"/>
      <point x="3" y="299" type="curve" smooth="yes"/>
      <point x="1" y="299" type="line"/>
      <point x="1" y="287" type="line"/>
      <point x="94" y="287" type="line"/>
      <point x="94" y="299" type="line"/>
      <point x="79" y="299" type="line" smooth="yes"/>
      <point x="57" y="299"/>
      <point x="54" y="304"/>
      <point x="54" y="311" type="curve" smooth="yes"/>
      <point x="54" y="319"/>
      <point x="58" y="334"/>
      <point x="63" y="352" type="curve" smooth="yes"/>
      <point x="96" y="484" type="line" smooth="yes"/>
      <point x="108" y="534"/>
      <point x="116" y="569"/>
      <point x="120" y="595" type="curve"/>
      <point x="122" y="595" type="line"/>
      <point x="125" y="568"/>
      <point x="142" y="505"/>
      <point x="150" y="475" type="curve" smooth="yes"/>
      <point x="203" y="287" type="line"/>
      <point x="226" y="287" type="line"/>
      <point x="280" y="485" type="line" smooth="yes"/>
      <point x="288" y="514"/>
      <point x="305" y="571"/>
      <point x="307" y="593" type="curve"/>
      <point x="309" y="593" type="line"/>
      <point x="311" y="571"/>
      <point x="324" y="514"/>
      <point x="331" y="485" type="curve" smooth="yes"/>
      <point x="361" y="354" type="line" smooth="yes"/>
      <point x="365" y="341"/>
      <point x="370" y="317"/>
      <point x="370" y="311" type="curve" smooth="yes"/>
      <point x="370" y="304"/>
      <point x="368" y="299"/>
      <point x="346" y="299" type="curve" smooth="yes"/>
      <point x="333" y="299" type="line"/>
      <point x="333" y="287" type="line"/>
      <point x="424" y="287" type="line"/>
      <point x="424" y="299" type="line"/>
      <point x="423" y="299" type="line" smooth="yes"/>
      <point x="397" y="299"/>
      <point x="392" y="302"/>
      <point x="385" y="331" type="curve" smooth="yes"/>
      <point x="319" y="609" type="line"/>
    </contour>
  </outline>
</glyph>
<glyph name="lslash.sc" format="2">
  <advance width="383"/>
  <anchor x="192" y="0" name="bottom"/>
  <anchor x="192" y="571" name="top"/>
  <anchor x="192" y="286" name="center"/>
  <anchor x="363" y="571" name="topright"/>
  <outline>
    <contour>
      <point x="40" y="200" type="line"/>
      <point x="235" y="323" type="line"/>
      <point x="235" y="349" type="line"/>
      <point x="40" y="226" type="line"/>
    </contour>
    <component base="l.sc"/>
  </outline>
</glyph>
